<?xml version="1.0" encoding="utf-8" ?>
<svg baseProfile="full" height="425" version="1.1" viewBox="0 0 415 425" width="415" xmlns="http://www.w3.org/2000/svg" xmlns:ev="http://www.w3.org/2001/xml-events" xmlns:xlink="http://www.w3.org/1999/xlink"><defs /><g fill="#FFFFFF" fill-rule="evenodd" stroke="none"><path d="M 92 362 L 92 363 L 93 363 L 93 362 Z M 334 358 L 334 359 L 335 359 L 335 358 Z M 73 365 L 74 365 L 76 363 L 78 365 L 79 368 L 81 368 L 82 369 L 83 373 L 85 372 L 87 373 L 89 375 L 89 378 L 91 377 L 94 380 L 94 383 L 96 382 L 98 383 L 99 381 L 100 382 L 100 385 L 102 385 L 103 387 L 105 388 L 105 389 L 107 389 L 108 390 L 107 391 L 105 391 L 105 393 L 110 393 L 111 394 L 113 393 L 114 394 L 116 394 L 121 398 L 123 398 L 126 400 L 128 400 L 132 405 L 136 404 L 137 405 L 137 407 L 142 407 L 144 410 L 146 410 L 147 409 L 148 410 L 150 409 L 151 410 L 156 410 L 160 413 L 159 415 L 160 415 L 161 413 L 165 415 L 167 414 L 168 415 L 177 415 L 178 416 L 182 416 L 183 415 L 185 415 L 186 416 L 189 416 L 190 418 L 193 418 L 194 420 L 195 420 L 197 418 L 199 418 L 200 419 L 203 419 L 204 420 L 204 422 L 209 422 L 209 421 L 206 421 L 205 420 L 206 419 L 214 419 L 215 420 L 217 419 L 223 419 L 224 420 L 227 420 L 228 419 L 231 419 L 231 418 L 226 418 L 225 417 L 226 416 L 232 416 L 233 415 L 237 415 L 238 416 L 240 415 L 251 415 L 252 414 L 256 416 L 263 416 L 264 415 L 267 415 L 266 413 L 265 413 L 263 415 L 259 415 L 258 413 L 262 410 L 264 410 L 265 409 L 274 410 L 274 409 L 277 405 L 279 406 L 282 404 L 289 404 L 289 402 L 290 401 L 297 399 L 297 396 L 298 395 L 299 397 L 301 396 L 302 398 L 304 398 L 304 395 L 306 393 L 308 393 L 308 392 L 310 391 L 311 389 L 312 389 L 314 387 L 316 387 L 316 386 L 319 383 L 322 383 L 322 381 L 324 378 L 326 379 L 330 377 L 331 374 L 333 373 L 334 371 L 336 371 L 337 373 L 338 373 L 338 369 L 337 368 L 339 367 L 340 365 L 342 365 L 343 363 L 345 361 L 346 361 L 347 359 L 348 359 L 348 358 L 347 358 L 346 360 L 344 359 L 345 357 L 343 358 L 337 358 L 337 360 L 338 361 L 337 362 L 334 362 L 331 364 L 330 363 L 328 363 L 328 365 L 329 366 L 328 367 L 322 368 L 321 370 L 320 368 L 318 368 L 319 370 L 317 373 L 315 374 L 312 374 L 311 376 L 309 376 L 307 378 L 306 378 L 305 376 L 304 376 L 303 377 L 303 379 L 301 380 L 300 382 L 298 382 L 294 385 L 290 385 L 289 387 L 286 387 L 284 390 L 283 389 L 280 389 L 279 390 L 277 389 L 275 390 L 272 390 L 272 391 L 274 393 L 270 395 L 269 394 L 266 394 L 265 395 L 263 394 L 259 396 L 257 396 L 256 395 L 253 395 L 252 396 L 251 395 L 248 395 L 248 397 L 246 398 L 245 400 L 242 400 L 241 401 L 237 401 L 236 400 L 234 400 L 231 402 L 230 402 L 228 400 L 230 399 L 231 397 L 201 397 L 200 399 L 197 402 L 196 402 L 195 401 L 190 401 L 189 400 L 179 401 L 177 399 L 174 399 L 172 397 L 169 396 L 168 394 L 167 394 L 165 397 L 164 395 L 162 396 L 161 395 L 154 396 L 151 394 L 149 395 L 145 393 L 146 392 L 146 389 L 140 389 L 139 390 L 138 389 L 136 389 L 135 387 L 129 384 L 125 385 L 123 383 L 123 381 L 120 381 L 119 382 L 118 380 L 115 378 L 112 378 L 111 379 L 109 377 L 109 375 L 108 374 L 103 374 L 100 372 L 98 368 L 93 368 L 89 363 L 85 363 L 82 360 L 82 358 L 81 357 L 74 357 L 73 358 L 73 361 L 75 362 L 73 363 Z M 199 402 L 201 400 L 204 400 L 205 399 L 206 400 L 208 399 L 212 399 L 213 400 L 215 399 L 216 400 L 219 400 L 220 399 L 226 399 L 227 400 L 225 402 L 221 401 L 220 403 L 200 403 Z M 142 392 L 143 391 L 144 392 L 143 393 Z M 107 391 L 108 390 L 109 391 L 108 392 Z M 102 385 L 103 384 L 104 385 L 103 386 Z M 171 342 L 171 345 L 172 345 L 172 342 Z M 77 340 L 77 342 L 78 342 L 78 340 Z M 167 334 L 167 335 L 168 335 L 168 334 Z M 241 329 L 241 330 L 242 330 L 242 329 Z M 375 328 L 375 329 L 390 329 L 390 328 Z M 368 328 L 368 329 L 372 329 L 372 328 Z M 344 328 L 344 329 L 362 329 L 362 328 Z M 341 328 L 341 329 L 342 329 L 342 328 Z M 285 328 L 285 329 L 296 329 L 297 330 L 296 331 L 296 335 L 297 336 L 300 336 L 301 337 L 300 338 L 300 340 L 301 340 L 301 339 L 303 338 L 303 336 L 304 335 L 305 336 L 310 336 L 311 337 L 311 339 L 312 339 L 312 337 L 310 336 L 312 334 L 315 334 L 315 332 L 313 331 L 311 329 L 311 328 L 308 328 L 307 330 L 305 330 L 304 328 L 301 328 L 300 330 L 297 330 L 296 328 Z M 300 336 L 301 335 L 302 336 L 301 337 Z M 301 335 L 302 334 L 303 335 L 302 336 Z M 301 331 L 302 330 L 303 331 L 302 332 Z M 276 328 L 276 329 L 282 329 L 282 328 Z M 269 328 L 269 329 L 274 329 L 274 328 Z M 125 328 L 125 329 L 126 329 L 126 328 Z M 265 319 L 265 320 L 267 320 L 267 319 Z M 338 317 L 337 317 L 336 320 L 338 320 Z M 379 309 L 379 310 L 380 310 L 380 309 Z M 320 308 L 320 317 L 322 318 L 322 311 L 321 310 L 321 308 Z M 335 305 L 335 306 L 336 306 L 336 305 Z M 39 290 L 39 292 L 40 292 L 40 290 Z M 165 268 L 165 270 L 166 271 L 166 275 L 167 275 L 167 268 Z M 334 258 L 335 260 L 338 260 L 337 258 Z M 307 258 L 307 265 L 308 265 L 308 258 Z M 324 259 L 328 259 L 328 257 L 329 256 L 332 256 L 334 253 L 335 254 L 335 256 L 338 256 L 338 251 L 336 250 L 337 249 L 337 247 L 335 247 L 334 246 L 328 246 L 328 250 L 327 251 L 327 253 L 328 254 L 326 255 Z M 334 252 L 335 251 L 336 253 L 335 254 Z M 333 250 L 334 249 L 335 250 L 334 251 Z M 255 260 L 255 262 L 260 265 L 258 268 L 257 267 L 254 267 L 254 270 L 253 271 L 254 273 L 254 280 L 253 281 L 253 283 L 257 285 L 257 288 L 259 289 L 259 293 L 264 293 L 265 295 L 266 295 L 268 297 L 266 300 L 264 299 L 259 299 L 259 301 L 260 302 L 259 305 L 261 305 L 262 306 L 261 308 L 262 308 L 265 311 L 264 312 L 264 314 L 265 314 L 267 312 L 272 315 L 270 316 L 270 317 L 274 317 L 275 318 L 275 320 L 278 320 L 279 321 L 278 322 L 258 322 L 257 320 L 254 320 L 253 322 L 254 330 L 260 330 L 262 331 L 263 329 L 265 329 L 265 328 L 263 328 L 263 329 L 261 330 L 260 328 L 258 328 L 257 327 L 258 326 L 323 326 L 324 327 L 323 328 L 316 328 L 317 330 L 322 329 L 323 331 L 324 331 L 325 330 L 329 330 L 330 328 L 332 330 L 332 333 L 333 333 L 333 331 L 334 330 L 338 330 L 338 328 L 334 328 L 333 327 L 334 326 L 392 326 L 393 327 L 392 328 L 392 331 L 394 330 L 397 331 L 397 329 L 400 325 L 402 326 L 402 330 L 404 329 L 405 330 L 413 330 L 413 327 L 411 327 L 410 326 L 410 291 L 411 290 L 412 291 L 412 297 L 414 296 L 414 291 L 412 288 L 410 288 L 409 290 L 405 290 L 404 288 L 402 288 L 401 289 L 400 288 L 398 288 L 397 290 L 394 290 L 392 288 L 392 287 L 391 287 L 391 290 L 393 291 L 393 319 L 389 322 L 375 322 L 374 321 L 371 321 L 369 319 L 371 318 L 371 316 L 369 312 L 369 310 L 371 309 L 371 306 L 374 304 L 377 304 L 378 302 L 379 304 L 381 304 L 381 299 L 379 299 L 378 298 L 370 298 L 369 297 L 371 296 L 371 295 L 369 295 L 367 297 L 365 297 L 364 299 L 360 299 L 360 301 L 361 302 L 360 303 L 360 305 L 362 306 L 360 307 L 360 316 L 361 317 L 359 318 L 359 319 L 361 318 L 363 321 L 362 322 L 335 322 L 334 321 L 332 321 L 331 320 L 333 319 L 333 311 L 334 310 L 335 312 L 336 312 L 336 310 L 335 310 L 334 308 L 333 308 L 332 310 L 331 309 L 331 306 L 329 305 L 329 302 L 330 301 L 331 302 L 331 304 L 335 303 L 336 300 L 335 300 L 333 298 L 330 298 L 330 299 L 328 301 L 325 301 L 324 300 L 324 298 L 321 298 L 319 300 L 319 302 L 321 304 L 322 304 L 322 302 L 323 301 L 324 302 L 324 320 L 320 322 L 283 322 L 282 321 L 283 320 L 286 320 L 286 318 L 285 317 L 285 310 L 283 309 L 281 310 L 279 307 L 280 306 L 279 304 L 277 304 L 277 306 L 274 308 L 272 306 L 275 304 L 274 302 L 274 299 L 273 299 L 273 305 L 272 306 L 269 303 L 270 302 L 270 296 L 271 295 L 275 295 L 276 296 L 278 295 L 279 296 L 282 296 L 281 294 L 282 293 L 285 293 L 284 291 L 285 290 L 287 291 L 296 291 L 297 292 L 296 293 L 296 298 L 298 298 L 298 296 L 297 295 L 298 293 L 302 293 L 303 294 L 301 295 L 301 296 L 308 296 L 312 291 L 314 291 L 315 292 L 313 293 L 313 294 L 315 295 L 317 294 L 316 292 L 317 291 L 357 291 L 358 292 L 366 294 L 367 292 L 364 289 L 365 288 L 369 289 L 369 286 L 368 285 L 369 284 L 369 280 L 368 278 L 370 277 L 370 276 L 372 274 L 372 271 L 371 269 L 370 269 L 370 273 L 368 274 L 368 276 L 369 277 L 368 278 L 366 277 L 366 274 L 365 273 L 366 272 L 366 262 L 367 261 L 368 262 L 368 265 L 370 264 L 368 260 L 370 257 L 368 253 L 370 251 L 370 248 L 368 247 L 368 245 L 366 245 L 365 246 L 361 246 L 359 248 L 359 250 L 360 251 L 360 253 L 359 254 L 360 256 L 360 280 L 359 281 L 359 284 L 358 285 L 356 285 L 355 283 L 353 283 L 352 282 L 352 279 L 349 279 L 349 283 L 348 284 L 347 283 L 347 276 L 349 275 L 349 273 L 347 270 L 349 269 L 349 268 L 344 265 L 344 260 L 342 260 L 336 263 L 332 261 L 322 261 L 321 262 L 318 262 L 317 263 L 316 262 L 314 262 L 314 263 L 316 264 L 316 266 L 315 267 L 314 265 L 312 265 L 313 269 L 316 271 L 317 271 L 317 268 L 319 266 L 320 267 L 322 267 L 323 266 L 324 267 L 327 267 L 332 270 L 331 271 L 329 271 L 329 272 L 331 272 L 333 275 L 336 275 L 337 277 L 339 277 L 340 276 L 341 277 L 341 279 L 342 280 L 342 283 L 341 284 L 340 283 L 340 281 L 338 281 L 337 282 L 327 283 L 326 285 L 313 285 L 312 283 L 311 283 L 308 280 L 309 276 L 307 276 L 307 279 L 306 280 L 305 279 L 305 246 L 296 246 L 296 250 L 297 251 L 296 252 L 296 259 L 297 260 L 297 273 L 299 274 L 299 277 L 297 278 L 297 280 L 296 281 L 296 283 L 297 284 L 296 285 L 294 284 L 293 281 L 291 279 L 290 279 L 290 280 L 288 282 L 287 281 L 285 282 L 284 281 L 284 259 L 285 258 L 285 255 L 284 254 L 285 252 L 283 251 L 284 250 L 284 248 L 283 248 L 281 246 L 276 245 L 274 247 L 273 245 L 272 245 L 271 247 L 269 245 L 267 245 L 265 247 L 265 251 L 264 252 L 264 254 L 266 255 L 265 256 L 261 256 L 260 257 L 258 257 L 256 258 Z M 395 328 L 396 327 L 397 328 L 396 329 Z M 405 327 L 406 326 L 409 326 L 410 327 L 409 328 L 406 328 Z M 393 326 L 394 325 L 395 326 L 394 327 Z M 330 326 L 331 325 L 332 326 L 331 327 Z M 324 326 L 325 325 L 326 326 L 325 327 Z M 395 325 L 396 324 L 397 325 L 396 326 Z M 396 324 L 397 323 L 398 324 L 397 325 Z M 397 323 L 398 322 L 399 323 L 398 324 Z M 256 322 L 257 323 L 257 325 L 256 326 L 255 325 L 255 323 Z M 330 319 L 331 318 L 332 319 L 331 320 Z M 367 317 L 368 316 L 369 317 L 368 318 Z M 274 316 L 275 315 L 276 316 L 275 317 Z M 273 315 L 274 314 L 275 315 L 274 316 Z M 272 314 L 273 313 L 274 314 L 273 315 Z M 268 311 L 269 310 L 270 311 L 269 312 Z M 367 309 L 368 310 L 368 313 L 369 314 L 367 316 L 366 315 L 366 310 Z M 329 310 L 331 309 L 332 310 L 332 312 L 330 313 L 329 312 Z M 262 307 L 263 306 L 264 307 L 263 308 Z M 369 304 L 370 303 L 371 304 L 370 305 Z M 361 304 L 362 303 L 363 304 L 362 305 Z M 261 303 L 262 302 L 263 304 L 262 305 Z M 375 302 L 376 301 L 378 302 L 377 303 Z M 262 301 L 263 300 L 264 302 L 263 303 Z M 368 298 L 369 297 L 370 298 L 369 299 Z M 267 294 L 268 293 L 270 293 L 271 294 L 270 295 L 268 295 Z M 305 293 L 306 292 L 307 293 L 306 294 Z M 270 293 L 273 291 L 274 292 L 273 294 L 271 294 Z M 399 290 L 401 292 L 400 293 L 400 295 L 403 295 L 404 296 L 404 325 L 403 326 L 402 325 L 402 319 L 401 319 L 400 321 L 398 320 L 398 291 Z M 400 300 L 400 309 L 402 309 L 402 303 L 401 302 L 401 300 Z M 298 291 L 299 290 L 300 291 L 299 292 Z M 282 290 L 283 289 L 284 290 L 283 291 Z M 279 290 L 280 289 L 281 290 L 280 291 Z M 304 290 L 306 288 L 308 290 L 307 291 L 305 291 Z M 261 289 L 262 288 L 263 289 L 262 290 Z M 363 288 L 364 287 L 365 288 L 364 289 Z M 260 288 L 261 287 L 262 288 L 261 289 Z M 303 287 L 304 286 L 305 287 L 304 288 Z M 351 284 L 352 283 L 353 284 L 352 285 Z M 348 284 L 349 283 L 350 284 L 349 285 Z M 309 284 L 310 283 L 311 284 L 310 285 Z M 287 284 L 288 283 L 289 284 L 288 285 Z M 256 284 L 257 283 L 258 284 L 257 285 Z M 285 283 L 286 282 L 287 283 L 286 284 Z M 257 283 L 258 282 L 259 283 L 258 284 Z M 306 282 L 307 281 L 308 282 L 307 283 Z M 366 277 L 367 278 L 367 285 L 366 286 L 365 285 L 365 278 Z M 346 273 L 347 272 L 348 274 L 347 275 Z M 338 273 L 339 272 L 340 274 L 339 275 Z M 345 271 L 346 270 L 347 272 L 346 273 Z M 337 271 L 338 270 L 339 272 L 338 273 Z M 336 269 L 337 268 L 338 269 L 337 270 Z M 257 268 L 258 269 L 258 281 L 257 282 L 256 281 L 256 275 L 254 272 L 254 271 L 256 270 Z M 277 264 L 278 263 L 279 264 L 278 265 Z M 270 261 L 274 261 L 275 262 L 275 265 L 276 267 L 278 267 L 279 265 L 280 266 L 280 284 L 279 285 L 278 284 L 278 278 L 275 277 L 275 279 L 276 280 L 275 282 L 273 283 L 273 284 L 274 284 L 276 287 L 275 288 L 270 288 L 269 287 L 271 286 L 271 284 L 270 283 L 271 281 L 268 281 L 266 283 L 265 283 L 263 279 L 263 272 L 264 271 L 264 269 L 267 267 L 269 268 L 272 265 L 272 263 L 270 264 L 269 263 Z M 276 271 L 275 271 L 274 274 L 275 274 Z M 260 262 L 261 261 L 262 262 L 261 263 Z M 261 261 L 262 260 L 263 261 L 262 262 Z M 262 260 L 263 259 L 264 260 L 263 261 Z M 366 257 L 367 258 L 367 260 L 366 261 L 365 260 L 365 258 Z M 277 258 L 278 257 L 280 258 L 279 259 Z M 265 258 L 266 257 L 267 258 L 266 259 Z M 363 257 L 364 256 L 366 257 L 365 258 Z M 280 256 L 281 255 L 284 257 L 283 258 L 281 258 Z M 267 257 L 268 256 L 272 256 L 273 255 L 277 257 L 276 258 L 268 258 Z M 270 254 L 271 253 L 272 254 L 271 255 Z M 361 253 L 362 252 L 363 253 L 362 254 Z M 276 253 L 277 252 L 280 252 L 281 253 L 280 254 L 277 254 Z M 282 252 L 283 251 L 284 252 L 283 253 Z M 267 253 L 270 251 L 271 252 L 270 254 L 268 254 Z M 270 251 L 271 250 L 272 251 L 271 252 Z M 297 250 L 298 249 L 299 250 L 298 251 Z M 367 247 L 368 248 L 368 251 L 367 252 L 366 251 L 366 248 Z M 271 249 L 272 247 L 274 248 L 272 250 Z M 334 243 L 334 244 L 337 244 L 337 243 Z M 60 243 L 60 244 L 61 244 L 61 243 Z M 4 295 L 4 298 L 7 299 L 8 297 L 10 299 L 10 331 L 9 332 L 4 331 L 4 335 L 9 334 L 10 335 L 10 337 L 11 337 L 11 335 L 12 334 L 13 334 L 14 336 L 16 336 L 17 334 L 19 334 L 19 332 L 18 332 L 16 330 L 16 321 L 17 320 L 19 321 L 25 321 L 26 322 L 25 323 L 21 323 L 20 325 L 18 325 L 18 328 L 20 328 L 21 327 L 28 327 L 28 326 L 30 325 L 30 324 L 32 323 L 33 321 L 38 319 L 39 320 L 42 320 L 43 322 L 40 325 L 37 325 L 34 327 L 34 330 L 32 332 L 31 332 L 30 334 L 33 336 L 35 336 L 35 335 L 37 334 L 40 338 L 41 342 L 42 342 L 43 339 L 41 337 L 41 335 L 42 334 L 43 336 L 49 335 L 49 334 L 51 332 L 51 331 L 50 331 L 49 329 L 51 328 L 51 326 L 52 325 L 56 325 L 57 326 L 61 326 L 62 327 L 62 336 L 64 336 L 65 334 L 66 336 L 71 334 L 72 335 L 72 337 L 74 338 L 74 336 L 73 335 L 74 334 L 76 334 L 77 336 L 79 336 L 80 334 L 81 335 L 81 338 L 88 338 L 89 337 L 92 337 L 92 336 L 84 336 L 83 335 L 84 334 L 103 334 L 104 335 L 103 336 L 99 336 L 99 338 L 106 338 L 105 336 L 106 335 L 110 335 L 112 337 L 111 339 L 109 339 L 108 340 L 108 341 L 110 342 L 112 341 L 112 340 L 114 338 L 118 338 L 120 337 L 121 335 L 124 335 L 123 325 L 121 324 L 121 316 L 123 314 L 125 314 L 127 317 L 125 318 L 125 323 L 126 325 L 127 325 L 128 327 L 130 327 L 132 330 L 137 330 L 138 329 L 140 330 L 145 330 L 147 332 L 147 336 L 149 336 L 150 334 L 157 334 L 158 335 L 157 336 L 154 336 L 153 337 L 154 339 L 162 338 L 164 337 L 165 335 L 165 327 L 164 327 L 163 329 L 162 327 L 160 327 L 159 326 L 159 298 L 161 297 L 162 298 L 162 300 L 163 300 L 164 301 L 164 303 L 165 303 L 165 297 L 164 296 L 163 291 L 162 291 L 162 293 L 161 294 L 158 294 L 157 295 L 151 288 L 153 286 L 155 290 L 156 290 L 156 289 L 158 287 L 158 285 L 156 285 L 155 284 L 159 280 L 160 282 L 163 282 L 163 280 L 162 279 L 163 277 L 163 272 L 161 271 L 161 266 L 163 265 L 163 262 L 165 261 L 165 258 L 164 258 L 163 256 L 160 256 L 159 257 L 157 255 L 158 254 L 157 249 L 156 249 L 155 251 L 154 250 L 154 248 L 155 247 L 157 247 L 157 245 L 155 245 L 154 246 L 152 245 L 150 246 L 149 245 L 146 245 L 145 247 L 142 247 L 141 246 L 113 246 L 112 245 L 110 246 L 96 246 L 95 245 L 93 245 L 89 247 L 88 246 L 88 241 L 87 240 L 85 240 L 84 241 L 84 244 L 86 244 L 87 245 L 86 246 L 53 246 L 51 248 L 51 250 L 54 252 L 54 254 L 52 255 L 52 256 L 54 257 L 54 282 L 55 282 L 55 252 L 56 251 L 57 252 L 57 288 L 56 289 L 54 288 L 55 287 L 55 285 L 54 285 L 53 287 L 51 288 L 52 290 L 51 291 L 52 293 L 51 294 L 51 296 L 52 296 L 53 298 L 51 301 L 47 299 L 46 307 L 45 308 L 43 308 L 42 307 L 43 306 L 43 304 L 42 304 L 40 302 L 40 299 L 38 299 L 35 297 L 37 295 L 37 294 L 34 294 L 33 293 L 33 291 L 30 290 L 29 288 L 28 288 L 28 290 L 26 292 L 26 294 L 25 295 L 23 294 L 20 294 L 19 295 L 18 294 L 13 294 L 11 291 L 10 291 L 7 294 L 5 294 Z M 159 335 L 160 334 L 161 335 L 160 336 Z M 118 335 L 119 334 L 121 335 L 120 336 Z M 114 335 L 115 334 L 116 335 L 115 336 Z M 110 333 L 111 332 L 112 333 L 111 334 Z M 46 332 L 47 331 L 48 332 L 47 333 Z M 149 331 L 150 330 L 151 331 L 150 332 Z M 111 331 L 112 330 L 114 331 L 113 332 Z M 78 331 L 79 330 L 81 331 L 80 332 Z M 74 331 L 75 330 L 77 331 L 76 332 Z M 48 331 L 49 330 L 50 331 L 49 332 Z M 42 331 L 43 330 L 44 331 L 43 332 Z M 34 331 L 35 330 L 37 331 L 36 332 Z M 73 330 L 74 329 L 75 330 L 74 331 Z M 37 330 L 38 329 L 39 330 L 38 331 Z M 161 328 L 162 329 L 160 332 L 159 331 L 159 329 Z M 147 329 L 148 328 L 149 330 L 148 331 Z M 108 329 L 109 328 L 110 329 L 109 330 Z M 72 329 L 73 328 L 74 329 L 73 330 Z M 65 328 L 66 329 L 66 331 L 65 332 L 64 331 L 64 329 Z M 76 329 L 76 327 L 78 326 L 79 328 L 77 330 Z M 46 326 L 47 325 L 48 326 L 47 327 Z M 139 325 L 140 324 L 141 325 L 140 326 Z M 130 327 L 130 325 L 131 324 L 133 326 L 131 328 Z M 50 325 L 51 324 L 52 325 L 51 326 Z M 47 325 L 48 324 L 49 325 L 48 326 Z M 138 324 L 139 323 L 140 324 L 139 325 Z M 108 323 L 109 322 L 110 323 L 109 324 Z M 56 323 L 57 322 L 58 323 L 57 324 Z M 139 322 L 140 321 L 141 322 L 140 323 Z M 128 322 L 129 321 L 130 322 L 129 323 Z M 127 321 L 128 320 L 129 321 L 128 322 Z M 69 321 L 70 320 L 71 322 L 70 323 Z M 140 320 L 141 319 L 142 320 L 141 321 Z M 48 320 L 49 319 L 50 320 L 49 321 Z M 32 319 L 33 321 L 31 322 L 30 321 Z M 141 319 L 142 318 L 143 319 L 142 320 Z M 126 319 L 127 318 L 128 319 L 127 320 Z M 119 318 L 120 319 L 120 328 L 123 331 L 123 333 L 122 334 L 121 332 L 119 332 L 118 331 L 118 319 Z M 68 319 L 69 318 L 70 320 L 69 321 Z M 50 319 L 51 318 L 52 319 L 51 320 Z M 52 318 L 53 317 L 55 318 L 54 319 Z M 47 318 L 48 317 L 49 318 L 48 319 Z M 34 318 L 35 317 L 36 318 L 35 319 Z M 67 317 L 68 316 L 69 318 L 68 319 Z M 55 317 L 56 316 L 58 316 L 59 317 L 58 318 L 56 318 Z M 35 317 L 36 316 L 37 317 L 36 318 Z M 18 317 L 19 316 L 25 316 L 26 317 L 25 318 L 19 318 Z M 143 316 L 144 315 L 145 316 L 144 317 Z M 148 314 L 152 316 L 152 329 L 151 330 L 150 329 L 150 317 L 149 317 L 149 324 L 148 325 L 145 325 L 143 323 L 143 322 L 145 320 L 146 322 L 147 322 L 147 315 Z M 138 315 L 139 314 L 140 315 L 139 316 Z M 48 315 L 49 314 L 50 316 L 49 317 Z M 36 315 L 37 314 L 38 316 L 37 317 Z M 26 316 L 27 314 L 29 314 L 30 315 L 27 317 Z M 144 314 L 145 313 L 146 314 L 145 315 Z M 41 314 L 42 313 L 43 314 L 42 315 Z M 65 313 L 66 312 L 68 312 L 69 313 L 67 316 Z M 37 313 L 38 312 L 39 314 L 38 315 Z M 147 312 L 148 311 L 149 312 L 148 313 Z M 140 312 L 141 311 L 142 312 L 141 313 Z M 150 311 L 151 310 L 152 311 L 151 312 Z M 141 311 L 142 310 L 143 311 L 142 312 Z M 38 311 L 39 310 L 40 312 L 39 313 Z M 142 309 L 143 308 L 144 309 L 143 310 Z M 143 308 L 144 307 L 145 308 L 144 309 Z M 64 307 L 66 308 L 66 311 L 65 312 L 63 309 Z M 56 307 L 59 313 L 58 314 L 50 315 L 49 313 L 52 308 L 53 309 L 55 309 Z M 62 307 L 63 306 L 64 307 L 63 308 Z M 47 307 L 48 306 L 49 307 L 48 308 Z M 144 306 L 145 305 L 146 306 L 145 307 Z M 119 305 L 120 306 L 120 312 L 119 313 L 118 312 L 118 306 Z M 39 306 L 40 305 L 41 307 L 43 308 L 43 309 L 42 310 L 39 308 Z M 131 305 L 132 304 L 133 305 L 132 306 Z M 54 303 L 56 306 L 55 308 L 53 308 L 52 307 Z M 38 304 L 39 303 L 40 305 L 39 306 Z M 77 302 L 79 304 L 79 324 L 78 325 L 77 324 L 77 305 L 76 304 Z M 49 302 L 50 301 L 51 302 L 50 303 Z M 37 302 L 38 301 L 39 302 L 38 303 Z M 125 301 L 126 300 L 127 301 L 126 302 Z M 123 299 L 125 298 L 126 300 L 125 301 Z M 81 298 L 82 299 L 82 330 L 81 331 L 80 330 L 80 299 Z M 24 298 L 27 300 L 24 302 L 24 304 L 28 306 L 30 306 L 31 305 L 32 306 L 32 309 L 30 312 L 29 311 L 27 311 L 27 314 L 26 315 L 22 314 L 21 312 L 20 312 L 20 313 L 18 314 L 18 316 L 17 317 L 16 316 L 16 311 L 18 310 L 18 309 L 20 308 L 19 305 L 18 305 L 18 308 L 17 309 L 16 308 L 16 300 L 17 299 L 18 300 L 18 302 L 19 302 L 20 301 L 20 300 L 18 299 L 19 298 Z M 89 298 L 90 297 L 91 298 L 90 299 Z M 77 299 L 78 297 L 80 297 L 81 298 L 78 300 Z M 121 297 L 122 296 L 123 297 L 122 298 Z M 119 296 L 120 295 L 121 296 L 120 297 Z M 52 296 L 53 295 L 54 296 L 53 297 Z M 5 296 L 6 295 L 7 296 L 6 297 Z M 94 293 L 106 293 L 107 294 L 105 295 L 106 297 L 107 297 L 108 295 L 109 297 L 112 297 L 115 299 L 115 330 L 114 331 L 113 330 L 113 328 L 111 329 L 109 328 L 109 326 L 111 323 L 112 325 L 113 325 L 110 319 L 106 320 L 104 323 L 99 323 L 99 325 L 97 328 L 97 329 L 99 329 L 100 330 L 99 331 L 89 331 L 88 330 L 88 304 L 90 301 L 90 299 L 91 298 L 94 298 L 94 295 L 93 294 Z M 9 294 L 10 293 L 11 294 L 10 295 Z M 148 293 L 149 292 L 150 293 L 149 294 Z M 126 292 L 127 291 L 128 292 L 128 294 L 130 295 L 133 295 L 133 293 L 135 291 L 137 293 L 139 293 L 140 291 L 141 293 L 143 292 L 144 293 L 146 293 L 147 294 L 146 295 L 143 295 L 143 296 L 146 296 L 147 297 L 147 301 L 145 304 L 138 304 L 138 305 L 140 305 L 141 306 L 137 310 L 132 310 L 131 309 L 134 307 L 135 304 L 133 302 L 133 301 L 131 300 L 131 299 L 126 299 L 125 298 Z M 120 292 L 121 291 L 123 291 L 124 292 L 123 293 L 121 293 Z M 108 292 L 109 291 L 110 292 L 109 293 Z M 79 292 L 80 291 L 81 292 L 80 293 Z M 68 291 L 77 291 L 78 292 L 78 297 L 77 298 L 75 297 L 75 300 L 74 301 L 74 326 L 73 327 L 72 327 L 70 324 L 72 323 L 72 318 L 69 314 L 71 313 L 71 310 L 69 310 L 67 308 L 66 304 L 62 305 L 60 302 L 62 301 L 62 294 L 63 293 L 67 293 Z M 73 293 L 73 294 L 74 294 L 74 293 Z M 61 292 L 62 291 L 63 292 L 62 293 Z M 55 292 L 56 291 L 57 292 L 56 293 Z M 144 291 L 145 290 L 146 291 L 145 292 Z M 95 290 L 96 289 L 97 290 L 96 291 Z M 94 283 L 95 282 L 98 282 L 101 287 L 99 289 L 95 288 L 94 287 Z M 90 283 L 91 282 L 92 283 L 91 284 Z M 146 282 L 147 281 L 148 282 L 147 283 Z M 91 281 L 92 280 L 93 281 L 92 282 Z M 87 281 L 88 280 L 89 281 L 88 282 Z M 159 278 L 160 277 L 161 278 L 160 279 Z M 161 272 L 162 273 L 162 275 L 161 276 L 160 275 L 160 273 Z M 65 271 L 66 270 L 67 271 L 66 272 Z M 66 270 L 67 269 L 68 270 L 67 271 Z M 84 269 L 85 268 L 86 269 L 85 270 Z M 69 268 L 70 267 L 71 268 L 70 269 Z M 71 267 L 72 266 L 73 267 L 72 268 Z M 161 262 L 162 263 L 162 265 L 161 266 L 160 265 L 160 263 Z M 71 263 L 72 262 L 73 263 L 72 264 Z M 162 258 L 163 257 L 164 258 L 163 259 Z M 159 258 L 160 257 L 161 259 L 160 260 Z M 91 256 L 92 255 L 93 256 L 92 257 Z M 90 253 L 91 252 L 92 253 L 91 254 Z M 155 252 L 156 251 L 157 252 L 156 253 Z M 99 251 L 101 253 L 101 282 L 100 283 L 99 282 L 99 278 L 98 277 L 98 261 L 97 261 L 97 277 L 95 281 L 94 280 L 94 277 L 93 277 L 91 280 L 90 278 L 85 277 L 83 278 L 83 279 L 85 280 L 82 283 L 78 283 L 78 286 L 79 286 L 80 284 L 83 286 L 81 288 L 65 288 L 64 287 L 64 272 L 65 271 L 66 272 L 66 277 L 67 277 L 67 273 L 68 272 L 69 273 L 70 277 L 72 277 L 72 268 L 73 267 L 80 267 L 81 266 L 84 268 L 83 269 L 83 271 L 84 272 L 88 272 L 88 267 L 90 265 L 93 265 L 93 264 L 92 264 L 90 262 L 90 260 L 91 259 L 94 259 L 94 253 L 95 252 L 96 253 L 96 255 L 98 256 L 98 252 Z M 66 279 L 66 286 L 67 286 L 69 284 L 70 284 L 70 283 L 68 283 L 67 282 L 67 279 Z M 80 252 L 81 251 L 82 252 L 81 253 Z M 83 251 L 84 250 L 85 251 L 84 252 Z M 108 249 L 109 250 L 109 256 L 110 256 L 110 252 L 113 250 L 117 252 L 116 258 L 117 258 L 119 256 L 120 257 L 120 288 L 119 289 L 117 289 L 115 286 L 113 286 L 111 289 L 109 289 L 108 288 L 110 287 L 110 283 L 109 283 L 109 287 L 108 288 L 107 287 L 107 250 Z M 114 262 L 114 282 L 115 284 L 116 284 L 115 282 L 115 262 Z M 128 248 L 129 249 L 129 251 L 130 251 L 131 253 L 133 253 L 133 251 L 134 250 L 136 250 L 137 252 L 139 252 L 140 251 L 142 252 L 143 254 L 147 257 L 148 261 L 150 262 L 150 271 L 151 271 L 151 262 L 152 261 L 153 262 L 153 277 L 152 278 L 151 277 L 151 274 L 150 274 L 150 276 L 146 280 L 145 280 L 145 281 L 143 283 L 142 283 L 142 285 L 144 286 L 141 288 L 128 288 L 127 287 L 127 249 Z M 130 257 L 129 259 L 129 277 L 130 278 L 130 282 L 131 283 L 129 284 L 129 285 L 131 286 L 132 284 L 135 286 L 139 286 L 139 285 L 137 285 L 136 284 L 136 283 L 138 282 L 138 276 L 136 277 L 136 282 L 135 283 L 134 282 L 134 259 L 133 259 L 133 282 L 132 283 L 131 282 L 131 257 Z M 71 249 L 73 248 L 74 250 L 78 250 L 79 251 L 78 252 L 73 252 Z M 64 249 L 65 248 L 67 248 L 68 250 L 70 250 L 72 252 L 72 253 L 82 254 L 83 255 L 82 256 L 77 257 L 77 258 L 82 258 L 83 256 L 87 256 L 88 254 L 91 258 L 91 259 L 90 260 L 86 260 L 84 263 L 82 262 L 79 262 L 78 261 L 77 261 L 77 262 L 75 263 L 74 261 L 70 261 L 69 260 L 69 259 L 71 258 L 71 257 L 69 257 L 68 256 L 69 252 L 66 252 L 66 263 L 68 264 L 68 266 L 65 268 L 64 267 Z M 149 248 L 150 247 L 151 248 L 150 249 Z M 147 247 L 148 246 L 149 247 L 148 248 Z M 18 217 L 17 217 L 16 220 L 18 220 Z M 0 216 L 0 218 L 1 218 L 1 216 Z M 290 212 L 290 213 L 291 213 L 291 212 Z M 390 211 L 390 212 L 391 212 L 391 211 Z M 272 207 L 272 208 L 273 208 L 273 207 Z M 188 201 L 188 202 L 189 202 L 189 201 Z M 144 200 L 144 201 L 147 201 L 146 199 Z M 371 195 L 371 196 L 372 196 L 372 195 Z M 158 195 L 158 196 L 159 196 L 159 195 Z M 18 195 L 18 202 L 19 202 L 19 195 Z M 374 193 L 374 194 L 375 194 L 375 193 Z M 309 193 L 310 195 L 312 195 L 311 193 Z M 330 192 L 328 192 L 328 194 L 329 194 Z M 226 192 L 226 193 L 227 193 L 227 192 Z M 71 192 L 71 193 L 73 194 L 73 192 Z M 366 189 L 366 190 L 369 190 L 369 189 Z M 18 189 L 18 193 L 19 193 L 19 189 Z M 328 196 L 328 198 L 329 199 L 328 200 L 328 202 L 329 203 L 331 202 L 335 202 L 339 204 L 338 205 L 338 207 L 339 208 L 339 211 L 338 213 L 339 214 L 342 213 L 342 210 L 344 208 L 347 210 L 352 208 L 354 210 L 353 211 L 354 213 L 356 214 L 358 213 L 360 215 L 360 216 L 362 216 L 364 218 L 364 220 L 366 220 L 367 221 L 366 222 L 360 222 L 360 224 L 368 223 L 371 221 L 372 223 L 373 223 L 373 222 L 375 220 L 381 219 L 381 214 L 382 213 L 384 214 L 387 214 L 388 213 L 388 212 L 386 210 L 386 205 L 387 203 L 381 203 L 379 200 L 381 199 L 381 198 L 370 198 L 369 197 L 369 193 L 368 193 L 367 195 L 365 193 L 359 193 L 358 192 L 356 193 L 354 192 L 348 192 L 347 191 L 349 190 L 349 188 L 348 187 L 344 188 L 343 187 L 344 186 L 344 184 L 342 184 L 342 185 L 339 187 L 338 189 L 339 191 L 337 193 L 333 193 L 333 195 L 330 197 Z M 362 213 L 363 212 L 364 213 L 363 214 Z M 358 211 L 359 210 L 360 211 L 359 212 Z M 340 207 L 341 206 L 342 207 L 341 208 Z M 339 205 L 340 204 L 341 205 L 340 206 Z M 377 202 L 378 201 L 379 202 L 378 203 Z M 367 198 L 368 197 L 370 198 L 369 199 Z M 365 197 L 366 196 L 368 197 L 367 198 Z M 360 195 L 361 194 L 362 195 L 361 196 Z M 336 195 L 337 194 L 338 195 L 337 196 Z M 357 194 L 358 193 L 359 194 L 358 195 Z M 339 190 L 340 189 L 341 190 L 340 191 Z M 61 184 L 56 183 L 56 185 L 58 186 L 57 187 L 54 187 L 53 185 L 52 185 L 52 186 L 54 187 L 51 189 L 51 191 L 52 192 L 51 193 L 47 193 L 46 195 L 44 195 L 44 197 L 46 198 L 43 200 L 43 203 L 40 205 L 41 209 L 42 210 L 41 211 L 41 221 L 42 222 L 41 223 L 41 225 L 43 225 L 42 223 L 43 222 L 45 222 L 46 224 L 48 224 L 49 223 L 50 224 L 61 224 L 61 222 L 59 221 L 61 220 L 61 217 L 59 217 L 58 215 L 60 213 L 60 210 L 62 209 L 62 204 L 63 203 L 66 203 L 68 204 L 69 203 L 73 203 L 74 202 L 74 200 L 72 198 L 71 198 L 70 200 L 69 199 L 69 196 L 67 193 L 64 193 L 62 191 L 64 190 L 64 189 L 62 188 L 63 186 Z M 56 220 L 58 218 L 60 220 L 59 221 L 57 221 Z M 44 204 L 45 205 L 45 207 L 43 208 L 42 206 Z M 70 200 L 71 199 L 72 200 L 71 201 Z M 45 199 L 46 198 L 47 199 L 46 200 Z M 59 189 L 60 188 L 62 189 L 61 190 Z M 57 187 L 59 186 L 60 188 L 59 189 Z M 61 181 L 61 182 L 63 182 L 63 181 Z M 326 180 L 326 181 L 327 181 L 327 180 Z M 392 179 L 392 182 L 393 182 L 393 179 Z M 293 178 L 293 179 L 294 179 L 294 178 Z M 126 178 L 126 179 L 127 179 L 127 178 Z M 362 174 L 362 175 L 363 175 L 363 174 Z M 290 174 L 290 175 L 291 175 L 291 174 Z M 338 173 L 338 174 L 339 174 L 339 173 Z M 104 173 L 104 174 L 105 174 L 105 173 Z M 391 166 L 391 168 L 393 169 L 393 166 Z M 26 166 L 26 171 L 28 171 L 29 168 L 27 166 Z M 296 163 L 296 165 L 299 165 L 299 164 Z M 28 154 L 28 155 L 29 155 L 29 154 Z M 411 152 L 411 155 L 412 155 L 412 152 Z M 95 151 L 95 152 L 96 152 L 96 151 Z M 333 149 L 332 149 L 331 151 L 333 151 Z M 9 148 L 9 149 L 10 149 L 10 148 Z M 364 145 L 364 146 L 366 146 L 366 145 Z M 385 143 L 383 143 L 383 144 L 381 145 L 381 149 L 383 149 L 385 147 Z M 338 140 L 338 146 L 339 146 L 339 140 Z M 113 139 L 113 140 L 114 140 L 114 139 Z M 42 145 L 41 150 L 42 150 L 42 148 L 44 146 L 45 146 L 47 148 L 46 150 L 44 152 L 43 152 L 43 165 L 44 165 L 45 167 L 42 169 L 40 168 L 40 170 L 44 170 L 45 168 L 46 169 L 46 172 L 48 176 L 50 176 L 51 174 L 53 176 L 51 178 L 51 180 L 53 180 L 54 181 L 52 182 L 52 183 L 53 183 L 54 181 L 58 181 L 60 178 L 62 179 L 64 178 L 65 179 L 67 179 L 68 178 L 71 178 L 73 175 L 79 177 L 81 174 L 83 174 L 84 173 L 84 172 L 82 172 L 81 170 L 79 169 L 80 167 L 82 168 L 83 165 L 81 165 L 80 166 L 79 165 L 79 159 L 80 158 L 81 159 L 81 163 L 83 163 L 83 159 L 82 158 L 82 152 L 81 152 L 79 154 L 78 153 L 78 150 L 80 149 L 80 148 L 79 148 L 79 149 L 76 151 L 74 150 L 71 146 L 69 146 L 69 148 L 67 149 L 66 148 L 67 147 L 66 145 L 67 144 L 71 144 L 69 140 L 66 140 L 65 139 L 61 139 L 59 140 L 57 138 L 56 138 L 54 140 L 53 139 L 50 139 L 50 140 L 52 141 L 51 142 L 47 142 L 44 145 Z M 55 178 L 56 177 L 58 178 L 57 179 Z M 53 177 L 54 176 L 56 177 L 55 178 Z M 76 174 L 77 173 L 78 174 L 77 175 Z M 77 172 L 78 171 L 80 172 L 79 173 Z M 67 164 L 68 163 L 70 163 L 71 165 L 70 166 L 68 166 Z M 55 162 L 56 161 L 57 162 L 56 163 Z M 67 161 L 68 160 L 69 161 L 68 162 Z M 55 158 L 56 157 L 57 158 L 56 159 Z M 53 156 L 54 157 L 54 159 L 53 160 L 52 159 L 52 157 Z M 70 149 L 71 148 L 72 149 L 71 150 Z M 62 149 L 63 148 L 64 149 L 63 150 Z M 344 132 L 344 133 L 345 133 L 345 132 Z M 285 131 L 285 132 L 286 132 L 286 131 Z M 39 130 L 39 131 L 40 131 L 40 130 Z M 400 128 L 400 129 L 401 129 L 401 128 Z M 73 115 L 73 117 L 74 117 L 74 115 Z M 370 114 L 369 118 L 370 120 L 372 120 L 372 117 L 371 116 L 371 114 Z M 368 111 L 368 112 L 369 112 L 369 111 Z M 291 108 L 291 109 L 292 109 L 292 108 Z M 275 107 L 275 108 L 276 108 L 276 107 Z M 272 104 L 272 105 L 273 105 L 273 104 Z M 147 104 L 147 105 L 148 105 L 148 104 Z M 320 101 L 319 101 L 317 103 L 317 106 L 320 106 Z M 89 86 L 89 87 L 91 87 L 91 86 Z M 162 82 L 162 83 L 164 83 L 164 82 Z M 115 82 L 115 83 L 116 83 L 116 82 Z M 170 79 L 168 80 L 168 83 L 169 83 Z M 273 77 L 273 78 L 274 78 L 274 77 Z M 137 77 L 137 78 L 140 78 L 140 77 Z M 41 75 L 41 76 L 43 77 L 43 76 Z M 285 74 L 285 77 L 286 77 L 286 74 Z M 81 73 L 81 74 L 82 74 L 82 73 Z M 218 69 L 218 72 L 219 72 L 219 69 Z M 304 68 L 305 70 L 305 76 L 306 76 L 308 71 L 306 69 L 306 68 Z M 221 67 L 221 72 L 222 72 L 222 67 Z M 217 61 L 217 64 L 218 64 L 218 61 Z M 271 60 L 271 61 L 273 61 L 273 60 Z M 233 60 L 233 61 L 234 61 L 234 60 Z M 180 54 L 177 55 L 177 56 L 180 55 Z M 62 54 L 62 57 L 64 58 L 64 54 Z M 115 52 L 115 54 L 116 54 L 116 52 Z M 309 52 L 307 51 L 306 52 L 306 54 L 308 54 Z M 222 49 L 221 49 L 220 59 L 221 59 L 221 55 L 223 54 L 223 50 Z M 135 49 L 135 51 L 136 51 L 136 49 Z M 126 49 L 126 53 L 127 55 L 125 57 L 124 55 L 119 55 L 121 59 L 120 60 L 115 61 L 116 64 L 118 64 L 120 66 L 124 65 L 125 64 L 127 67 L 127 69 L 125 71 L 126 75 L 125 77 L 123 78 L 121 81 L 120 81 L 120 84 L 116 87 L 116 91 L 125 91 L 128 93 L 126 95 L 126 96 L 128 95 L 130 96 L 133 96 L 134 97 L 136 96 L 137 97 L 141 96 L 145 99 L 144 101 L 150 102 L 152 104 L 152 106 L 150 107 L 149 109 L 152 109 L 153 107 L 159 107 L 160 108 L 159 109 L 157 109 L 157 110 L 161 111 L 162 112 L 164 112 L 165 113 L 162 115 L 158 113 L 148 113 L 147 112 L 146 108 L 139 108 L 138 109 L 137 108 L 131 108 L 131 109 L 135 109 L 136 110 L 135 111 L 126 111 L 125 109 L 121 108 L 121 109 L 119 111 L 118 110 L 115 110 L 115 111 L 113 113 L 109 113 L 108 112 L 109 109 L 105 109 L 105 117 L 104 118 L 100 118 L 99 122 L 95 124 L 94 122 L 96 121 L 97 119 L 94 119 L 93 118 L 94 117 L 94 113 L 93 112 L 91 112 L 90 113 L 89 111 L 93 109 L 95 107 L 95 106 L 93 105 L 94 104 L 96 104 L 97 102 L 99 103 L 100 101 L 102 102 L 106 101 L 106 100 L 104 98 L 104 94 L 105 93 L 104 90 L 100 90 L 98 89 L 99 91 L 98 92 L 96 92 L 95 91 L 96 90 L 96 87 L 94 87 L 94 89 L 93 90 L 88 90 L 87 91 L 85 90 L 86 88 L 84 88 L 84 90 L 83 91 L 78 92 L 78 96 L 77 97 L 75 97 L 74 96 L 74 93 L 73 93 L 73 98 L 72 99 L 73 101 L 73 113 L 75 112 L 77 115 L 77 117 L 79 117 L 81 119 L 84 120 L 86 123 L 86 125 L 88 125 L 88 123 L 89 122 L 90 123 L 90 125 L 92 125 L 93 123 L 94 124 L 94 128 L 95 129 L 101 129 L 102 128 L 105 128 L 106 127 L 108 127 L 109 128 L 118 128 L 119 127 L 121 128 L 122 127 L 126 127 L 127 128 L 135 129 L 136 130 L 140 129 L 143 131 L 142 132 L 142 134 L 141 135 L 140 134 L 138 134 L 136 136 L 136 137 L 143 137 L 142 135 L 144 133 L 146 133 L 147 134 L 147 138 L 151 138 L 152 139 L 151 140 L 147 140 L 146 141 L 145 139 L 144 139 L 142 141 L 137 141 L 136 140 L 132 140 L 131 139 L 129 140 L 126 140 L 125 141 L 123 139 L 121 140 L 116 140 L 116 143 L 114 145 L 112 145 L 111 146 L 109 145 L 109 142 L 105 142 L 105 150 L 104 151 L 100 150 L 99 151 L 100 155 L 99 156 L 95 156 L 95 158 L 94 159 L 94 164 L 91 166 L 89 166 L 88 168 L 86 167 L 86 171 L 88 170 L 90 171 L 87 175 L 87 178 L 89 178 L 90 176 L 99 176 L 99 172 L 100 171 L 105 171 L 105 169 L 106 168 L 107 168 L 108 170 L 110 171 L 112 170 L 114 171 L 114 170 L 113 170 L 112 168 L 108 168 L 107 167 L 110 165 L 113 165 L 114 166 L 116 165 L 118 166 L 120 165 L 120 162 L 121 161 L 127 160 L 128 159 L 129 160 L 131 159 L 132 160 L 145 160 L 146 158 L 147 159 L 157 159 L 158 160 L 158 162 L 159 162 L 159 161 L 161 160 L 161 158 L 162 157 L 163 159 L 167 160 L 168 161 L 167 162 L 164 162 L 161 164 L 159 164 L 157 166 L 154 166 L 153 167 L 153 169 L 149 172 L 148 171 L 146 171 L 145 172 L 144 171 L 142 171 L 141 173 L 138 172 L 134 174 L 130 174 L 129 175 L 129 177 L 131 179 L 131 181 L 130 182 L 127 182 L 126 183 L 126 185 L 124 187 L 121 188 L 120 190 L 116 189 L 116 190 L 118 191 L 116 193 L 115 193 L 115 195 L 113 198 L 112 196 L 111 196 L 111 197 L 109 199 L 108 198 L 109 194 L 107 194 L 106 196 L 106 199 L 107 201 L 109 201 L 110 202 L 110 204 L 109 205 L 108 203 L 105 203 L 105 206 L 106 207 L 105 208 L 104 219 L 108 219 L 109 220 L 108 224 L 110 224 L 112 223 L 112 221 L 113 220 L 115 221 L 115 216 L 117 214 L 119 214 L 120 213 L 121 214 L 125 213 L 126 212 L 126 210 L 129 208 L 136 208 L 137 205 L 135 205 L 134 204 L 138 202 L 139 203 L 141 203 L 142 202 L 142 199 L 141 198 L 142 197 L 152 197 L 154 196 L 154 195 L 151 195 L 150 194 L 153 192 L 159 192 L 161 194 L 162 196 L 160 198 L 158 198 L 158 199 L 156 200 L 156 202 L 153 204 L 151 202 L 150 202 L 149 204 L 147 203 L 147 207 L 148 207 L 149 205 L 152 208 L 151 213 L 147 215 L 147 220 L 148 221 L 148 225 L 146 228 L 147 240 L 152 240 L 152 239 L 154 238 L 154 236 L 153 236 L 152 234 L 153 233 L 154 234 L 157 234 L 158 231 L 162 229 L 164 227 L 164 226 L 167 223 L 167 222 L 165 221 L 167 219 L 168 219 L 168 215 L 169 214 L 173 214 L 174 212 L 175 213 L 178 213 L 178 211 L 177 210 L 178 207 L 176 208 L 175 206 L 176 205 L 179 205 L 179 200 L 180 199 L 181 200 L 181 202 L 182 202 L 182 200 L 180 199 L 181 197 L 183 198 L 186 198 L 186 196 L 187 195 L 189 195 L 189 194 L 186 194 L 185 196 L 184 195 L 184 193 L 185 192 L 190 192 L 193 188 L 194 189 L 194 193 L 195 195 L 196 195 L 195 193 L 196 192 L 198 192 L 200 194 L 200 200 L 201 201 L 201 203 L 200 204 L 200 208 L 199 209 L 200 213 L 199 214 L 194 214 L 194 218 L 193 219 L 191 219 L 190 217 L 189 217 L 189 219 L 190 220 L 189 221 L 189 223 L 191 227 L 190 230 L 193 231 L 194 232 L 194 234 L 192 235 L 191 233 L 190 233 L 190 234 L 191 234 L 192 236 L 190 237 L 190 244 L 188 246 L 186 247 L 184 244 L 182 244 L 183 246 L 183 250 L 185 252 L 185 253 L 183 257 L 182 256 L 182 253 L 180 253 L 179 255 L 181 256 L 181 257 L 184 260 L 184 261 L 182 262 L 181 260 L 180 260 L 179 262 L 179 276 L 177 278 L 177 281 L 175 283 L 175 287 L 174 288 L 172 287 L 173 278 L 171 278 L 170 279 L 170 282 L 169 283 L 169 286 L 170 287 L 170 293 L 172 294 L 171 296 L 171 299 L 172 300 L 170 304 L 170 309 L 171 309 L 171 307 L 173 303 L 174 304 L 174 308 L 175 309 L 173 310 L 173 312 L 171 313 L 170 315 L 169 314 L 169 312 L 168 312 L 168 319 L 170 320 L 172 319 L 173 320 L 175 320 L 175 319 L 177 318 L 179 321 L 178 323 L 179 329 L 181 330 L 179 331 L 179 335 L 178 336 L 178 337 L 180 338 L 176 342 L 174 342 L 174 347 L 176 348 L 176 351 L 178 351 L 179 352 L 181 351 L 182 352 L 189 352 L 190 351 L 197 351 L 198 352 L 200 351 L 240 351 L 242 352 L 243 350 L 243 346 L 244 345 L 244 344 L 242 343 L 243 342 L 242 340 L 243 339 L 243 337 L 241 336 L 241 333 L 239 333 L 239 335 L 238 336 L 237 335 L 237 331 L 239 330 L 238 328 L 238 326 L 239 325 L 243 326 L 243 325 L 240 323 L 242 322 L 242 314 L 241 312 L 243 311 L 243 307 L 244 306 L 244 304 L 243 303 L 243 291 L 242 290 L 242 281 L 240 279 L 242 277 L 243 277 L 242 273 L 244 272 L 244 271 L 243 270 L 243 267 L 242 266 L 242 262 L 239 257 L 237 257 L 237 259 L 236 260 L 235 259 L 235 257 L 233 256 L 232 250 L 231 249 L 232 247 L 232 244 L 231 243 L 233 242 L 233 241 L 229 241 L 227 238 L 227 232 L 229 231 L 230 229 L 231 230 L 231 235 L 230 237 L 231 239 L 232 239 L 232 235 L 234 232 L 234 228 L 232 226 L 232 225 L 231 225 L 231 227 L 230 228 L 227 222 L 226 222 L 224 226 L 223 225 L 223 222 L 221 219 L 222 217 L 221 216 L 221 211 L 220 210 L 220 204 L 221 203 L 221 193 L 223 192 L 223 187 L 225 184 L 226 186 L 228 186 L 232 188 L 232 196 L 234 197 L 234 201 L 235 203 L 237 203 L 237 201 L 235 198 L 235 194 L 233 193 L 234 192 L 236 192 L 238 195 L 238 198 L 240 198 L 243 202 L 243 210 L 244 212 L 246 211 L 245 209 L 247 208 L 249 211 L 248 213 L 250 213 L 253 215 L 254 217 L 253 218 L 253 220 L 254 221 L 253 224 L 254 225 L 256 224 L 259 226 L 258 228 L 257 227 L 255 227 L 256 229 L 256 234 L 258 234 L 259 230 L 260 229 L 262 229 L 264 231 L 264 234 L 267 234 L 269 236 L 269 240 L 271 240 L 272 239 L 274 240 L 275 239 L 275 235 L 274 234 L 275 233 L 275 230 L 273 229 L 274 228 L 274 226 L 273 225 L 275 221 L 275 218 L 274 217 L 274 215 L 269 211 L 269 204 L 270 203 L 271 205 L 272 205 L 273 202 L 274 201 L 276 201 L 276 199 L 277 198 L 280 198 L 281 199 L 280 201 L 278 202 L 278 203 L 279 203 L 280 201 L 285 203 L 286 204 L 286 207 L 287 208 L 286 209 L 286 211 L 287 211 L 287 209 L 288 208 L 289 209 L 292 209 L 293 211 L 295 210 L 296 211 L 296 213 L 302 213 L 303 214 L 305 213 L 307 215 L 306 216 L 307 218 L 306 219 L 306 222 L 308 223 L 310 221 L 312 224 L 315 224 L 314 220 L 316 219 L 316 217 L 317 216 L 317 212 L 316 211 L 316 209 L 314 208 L 314 207 L 317 205 L 317 203 L 315 202 L 315 198 L 314 197 L 310 198 L 306 195 L 307 194 L 307 190 L 303 188 L 303 182 L 301 183 L 299 182 L 299 183 L 301 184 L 299 187 L 296 183 L 296 182 L 291 182 L 290 181 L 291 180 L 290 177 L 281 176 L 280 175 L 283 172 L 284 174 L 285 174 L 285 173 L 284 173 L 283 171 L 280 171 L 277 173 L 276 171 L 266 171 L 265 170 L 267 168 L 268 168 L 268 167 L 266 167 L 265 168 L 264 166 L 257 166 L 255 167 L 253 165 L 253 160 L 254 159 L 256 159 L 257 157 L 260 157 L 263 160 L 267 160 L 268 159 L 270 159 L 271 157 L 273 159 L 273 160 L 276 160 L 277 159 L 281 159 L 283 157 L 284 157 L 285 159 L 287 159 L 288 158 L 290 160 L 292 159 L 293 160 L 298 160 L 301 162 L 301 165 L 303 169 L 305 169 L 306 167 L 308 168 L 307 171 L 309 171 L 310 170 L 312 171 L 321 171 L 322 170 L 323 171 L 323 173 L 321 175 L 319 175 L 318 179 L 324 179 L 324 177 L 328 175 L 329 176 L 333 176 L 334 172 L 330 170 L 331 167 L 328 167 L 327 166 L 328 164 L 330 163 L 332 160 L 333 160 L 336 163 L 334 164 L 334 165 L 339 165 L 340 166 L 340 169 L 343 171 L 348 171 L 349 172 L 349 176 L 350 177 L 355 178 L 355 177 L 357 176 L 358 174 L 360 175 L 360 173 L 362 171 L 368 171 L 369 170 L 368 167 L 370 166 L 370 155 L 369 154 L 370 152 L 368 150 L 366 150 L 363 148 L 361 149 L 360 148 L 361 145 L 360 144 L 360 141 L 358 139 L 354 139 L 353 140 L 352 139 L 350 140 L 349 139 L 347 140 L 345 139 L 344 140 L 344 144 L 342 145 L 342 147 L 344 148 L 344 150 L 343 151 L 341 151 L 340 149 L 338 149 L 337 150 L 338 152 L 336 153 L 335 155 L 327 153 L 327 160 L 326 161 L 324 159 L 324 155 L 322 154 L 322 150 L 315 150 L 314 149 L 314 147 L 315 146 L 317 147 L 317 145 L 315 145 L 315 146 L 313 147 L 311 143 L 307 142 L 305 144 L 304 143 L 302 143 L 301 142 L 301 140 L 287 140 L 286 141 L 284 140 L 283 141 L 280 141 L 278 139 L 276 139 L 275 140 L 273 139 L 273 137 L 276 134 L 278 133 L 280 134 L 279 130 L 280 129 L 283 129 L 284 128 L 288 128 L 289 127 L 290 128 L 292 128 L 293 127 L 308 127 L 309 128 L 313 128 L 315 127 L 316 128 L 319 128 L 320 129 L 325 129 L 326 128 L 328 128 L 327 126 L 328 124 L 324 122 L 325 120 L 327 120 L 327 118 L 325 117 L 324 115 L 322 115 L 320 113 L 320 110 L 319 109 L 317 109 L 317 111 L 318 112 L 317 113 L 309 113 L 308 112 L 306 113 L 304 111 L 304 110 L 300 108 L 294 108 L 295 110 L 294 111 L 286 111 L 285 110 L 286 108 L 280 108 L 280 109 L 276 113 L 275 112 L 270 112 L 269 113 L 267 113 L 266 112 L 267 110 L 265 109 L 264 106 L 265 105 L 267 106 L 269 108 L 269 109 L 271 109 L 271 107 L 269 105 L 269 104 L 271 102 L 273 102 L 274 101 L 274 98 L 275 97 L 279 97 L 280 96 L 287 96 L 289 97 L 290 96 L 290 94 L 293 92 L 296 92 L 297 91 L 306 91 L 306 86 L 305 85 L 302 85 L 301 84 L 301 81 L 302 80 L 305 80 L 305 79 L 301 79 L 300 81 L 299 79 L 297 79 L 296 77 L 297 76 L 301 75 L 301 72 L 302 71 L 302 66 L 301 65 L 302 64 L 306 64 L 306 61 L 307 59 L 306 58 L 306 56 L 303 56 L 300 54 L 299 54 L 299 56 L 298 57 L 297 56 L 297 52 L 295 50 L 295 49 L 294 49 L 294 50 L 292 51 L 291 53 L 291 56 L 289 58 L 287 54 L 285 54 L 286 56 L 285 58 L 286 60 L 285 64 L 290 64 L 292 66 L 290 67 L 290 70 L 291 71 L 290 75 L 293 75 L 295 77 L 293 81 L 289 81 L 288 80 L 285 80 L 284 81 L 279 81 L 278 80 L 282 78 L 282 77 L 278 77 L 278 79 L 275 81 L 273 81 L 271 79 L 268 78 L 268 79 L 266 81 L 265 79 L 264 79 L 262 82 L 259 83 L 259 85 L 256 87 L 254 86 L 252 90 L 250 91 L 244 91 L 243 92 L 242 90 L 244 88 L 245 88 L 245 87 L 243 86 L 243 83 L 246 80 L 249 83 L 248 85 L 246 84 L 247 86 L 248 86 L 249 84 L 253 83 L 253 81 L 254 80 L 254 77 L 253 76 L 254 74 L 253 73 L 256 70 L 258 69 L 260 71 L 260 72 L 257 74 L 256 77 L 260 77 L 260 75 L 264 73 L 264 71 L 260 69 L 261 68 L 264 68 L 263 66 L 264 64 L 270 64 L 269 62 L 269 58 L 270 56 L 269 55 L 263 55 L 264 57 L 263 58 L 257 58 L 256 57 L 257 56 L 260 56 L 260 55 L 253 55 L 252 54 L 249 54 L 250 56 L 248 57 L 247 59 L 244 59 L 243 60 L 239 57 L 236 57 L 236 60 L 237 61 L 236 62 L 236 64 L 235 65 L 232 65 L 230 69 L 228 71 L 226 71 L 227 73 L 226 76 L 225 77 L 224 76 L 222 76 L 222 78 L 221 79 L 219 79 L 218 81 L 217 80 L 217 74 L 215 72 L 215 69 L 214 68 L 214 65 L 215 64 L 215 60 L 214 59 L 215 58 L 218 58 L 218 55 L 217 55 L 216 53 L 215 53 L 213 51 L 213 49 L 211 48 L 211 42 L 210 42 L 207 45 L 206 44 L 203 44 L 203 49 L 202 51 L 203 53 L 205 53 L 206 54 L 205 58 L 207 61 L 207 63 L 204 67 L 202 65 L 199 65 L 199 67 L 201 66 L 203 67 L 207 72 L 206 74 L 204 75 L 204 78 L 205 79 L 204 82 L 206 84 L 205 86 L 202 86 L 200 83 L 200 76 L 196 76 L 195 75 L 196 73 L 199 73 L 199 72 L 196 72 L 194 70 L 192 70 L 191 68 L 189 67 L 190 66 L 192 66 L 192 65 L 191 65 L 189 63 L 188 63 L 187 65 L 185 64 L 184 62 L 185 61 L 185 58 L 183 58 L 182 60 L 181 60 L 180 58 L 175 58 L 174 59 L 173 58 L 173 55 L 167 55 L 166 54 L 160 54 L 159 55 L 151 54 L 150 55 L 147 55 L 148 57 L 147 58 L 147 61 L 148 61 L 148 60 L 150 59 L 153 62 L 152 63 L 153 65 L 158 65 L 159 66 L 158 69 L 162 71 L 164 71 L 165 72 L 163 74 L 163 75 L 167 73 L 168 75 L 171 75 L 173 78 L 173 82 L 174 83 L 173 85 L 173 88 L 174 88 L 174 87 L 176 86 L 178 88 L 176 89 L 176 90 L 178 91 L 181 91 L 182 92 L 180 95 L 179 94 L 176 94 L 175 96 L 174 95 L 174 92 L 173 92 L 171 90 L 169 90 L 167 86 L 164 86 L 163 87 L 161 86 L 158 83 L 158 80 L 157 79 L 156 79 L 154 81 L 153 81 L 152 79 L 149 79 L 147 82 L 144 82 L 143 81 L 137 81 L 135 79 L 135 78 L 133 78 L 134 80 L 133 81 L 129 81 L 129 82 L 127 83 L 126 82 L 126 76 L 128 73 L 129 74 L 129 76 L 131 75 L 134 75 L 134 71 L 133 70 L 135 68 L 135 66 L 136 65 L 139 65 L 141 64 L 141 63 L 139 62 L 139 60 L 137 60 L 136 59 L 136 54 L 134 55 L 133 54 L 131 54 L 130 53 L 131 52 L 130 49 Z M 183 338 L 184 337 L 185 338 L 184 339 Z M 234 337 L 235 336 L 238 338 L 237 339 L 235 339 Z M 180 334 L 181 333 L 182 334 L 181 335 Z M 170 315 L 172 314 L 174 316 L 174 317 L 172 318 L 170 316 Z M 171 292 L 172 291 L 173 293 L 172 294 Z M 240 276 L 241 275 L 242 276 L 241 277 Z M 239 271 L 240 270 L 242 270 L 243 272 L 242 273 Z M 237 267 L 238 266 L 240 269 L 238 270 L 237 269 Z M 180 263 L 181 262 L 182 263 L 181 264 Z M 236 260 L 238 259 L 239 260 L 239 262 L 238 263 Z M 157 230 L 158 229 L 159 230 L 158 231 Z M 156 229 L 157 228 L 158 229 L 157 230 Z M 224 227 L 225 226 L 226 227 L 225 228 Z M 163 222 L 164 221 L 165 222 L 164 223 Z M 197 218 L 198 219 L 198 221 L 197 222 L 196 221 L 196 219 Z M 194 218 L 195 219 L 195 223 L 196 224 L 196 227 L 195 228 L 193 224 L 193 219 Z M 271 217 L 272 216 L 273 217 L 272 218 Z M 197 216 L 198 215 L 199 216 L 198 217 Z M 167 214 L 168 213 L 169 214 L 168 215 Z M 171 209 L 172 208 L 173 209 L 172 210 Z M 174 205 L 175 204 L 176 205 L 175 206 Z M 313 203 L 314 202 L 315 203 L 314 204 Z M 268 203 L 269 202 L 270 203 L 269 204 Z M 311 202 L 312 201 L 314 202 L 313 203 Z M 260 200 L 261 199 L 262 200 L 261 201 Z M 261 197 L 262 196 L 263 197 L 262 198 Z M 304 192 L 305 191 L 306 192 L 305 193 Z M 257 192 L 258 191 L 259 192 L 258 193 Z M 302 191 L 303 190 L 304 191 L 303 192 Z M 162 190 L 163 191 L 163 193 L 162 194 L 161 193 L 161 191 Z M 300 190 L 301 189 L 302 190 L 301 191 Z M 190 188 L 191 187 L 192 188 L 191 189 Z M 253 188 L 255 186 L 256 187 L 259 187 L 264 191 L 263 193 L 268 192 L 270 195 L 270 197 L 274 197 L 275 199 L 273 201 L 270 200 L 268 203 L 266 203 L 265 204 L 264 203 L 264 201 L 265 200 L 267 200 L 267 199 L 264 197 L 264 195 L 259 195 L 258 194 L 260 193 L 260 192 L 259 192 L 258 190 L 254 189 Z M 169 186 L 170 185 L 171 186 L 170 187 Z M 161 185 L 162 186 L 162 189 L 160 190 L 158 188 L 160 187 Z M 248 183 L 250 182 L 252 184 L 253 187 L 252 188 L 250 187 L 248 185 Z M 193 183 L 194 182 L 195 183 L 194 184 Z M 170 183 L 171 182 L 173 182 L 174 183 L 173 184 L 171 184 Z M 225 182 L 226 181 L 227 182 L 226 183 Z M 166 182 L 167 181 L 168 182 L 167 183 Z M 244 181 L 245 180 L 246 181 L 245 182 Z M 353 175 L 354 174 L 356 175 L 355 176 Z M 134 176 L 138 174 L 140 174 L 141 175 L 138 177 L 135 177 Z M 352 174 L 353 173 L 354 174 L 353 175 Z M 225 170 L 226 169 L 227 170 L 226 171 Z M 192 170 L 193 169 L 194 171 L 193 172 Z M 263 169 L 264 168 L 265 169 L 264 170 Z M 195 169 L 196 168 L 197 169 L 196 170 Z M 316 168 L 317 167 L 318 168 L 317 169 Z M 307 166 L 308 165 L 310 167 L 308 168 Z M 303 166 L 304 165 L 305 166 L 304 167 Z M 240 162 L 241 161 L 242 162 L 241 163 Z M 326 161 L 327 160 L 328 161 L 327 162 Z M 235 161 L 236 160 L 237 161 L 236 162 Z M 176 162 L 174 165 L 172 165 L 171 166 L 166 166 L 165 167 L 161 167 L 160 166 L 162 164 L 168 164 L 170 160 L 173 160 Z M 243 160 L 244 159 L 246 159 L 247 160 L 246 161 L 244 161 Z M 238 160 L 239 159 L 240 160 L 239 161 Z M 180 160 L 181 159 L 183 159 L 184 160 L 183 161 L 181 161 Z M 175 159 L 176 158 L 178 159 L 177 160 Z M 169 158 L 170 157 L 171 158 L 170 159 Z M 136 158 L 137 157 L 138 158 L 137 159 Z M 264 157 L 265 156 L 267 156 L 268 157 L 267 158 L 265 158 Z M 147 157 L 148 156 L 149 157 L 148 158 Z M 367 156 L 368 155 L 369 156 L 368 157 Z M 330 155 L 331 155 L 333 158 L 331 161 L 329 159 L 329 156 Z M 339 152 L 340 151 L 341 152 L 340 153 Z M 107 147 L 108 146 L 109 147 L 108 148 Z M 261 142 L 262 141 L 264 141 L 265 142 L 264 143 L 262 143 Z M 162 142 L 164 139 L 166 139 L 168 141 L 168 143 L 167 144 L 164 144 Z M 258 139 L 259 138 L 260 139 L 259 140 Z M 255 139 L 256 138 L 257 139 L 256 140 Z M 153 139 L 155 138 L 156 140 L 159 142 L 158 143 L 156 143 L 153 141 Z M 202 138 L 203 137 L 204 138 L 203 139 Z M 262 137 L 263 136 L 264 137 L 263 138 Z M 271 136 L 272 135 L 273 136 L 272 137 Z M 230 136 L 231 135 L 233 136 L 232 137 Z M 188 136 L 189 135 L 190 136 L 189 137 Z M 155 135 L 156 134 L 159 134 L 160 135 L 159 136 L 156 136 Z M 270 134 L 271 133 L 272 135 L 271 136 Z M 268 133 L 271 138 L 270 140 L 267 140 L 266 139 L 266 136 L 265 135 Z M 232 134 L 233 133 L 234 134 L 233 135 Z M 150 134 L 151 133 L 152 134 L 151 135 Z M 271 133 L 272 132 L 273 133 L 272 134 Z M 201 133 L 202 132 L 203 134 L 202 135 Z M 91 123 L 92 122 L 93 123 L 92 124 Z M 89 122 L 90 121 L 91 122 L 90 123 Z M 323 120 L 324 119 L 325 120 L 324 121 Z M 249 122 L 251 119 L 253 119 L 254 120 L 252 121 L 251 123 Z M 91 120 L 92 119 L 93 120 L 92 121 Z M 248 119 L 249 118 L 250 119 L 249 120 Z M 227 119 L 228 118 L 229 119 L 228 120 Z M 171 117 L 174 121 L 173 123 L 171 123 L 168 121 L 168 120 L 170 119 Z M 160 117 L 161 116 L 163 116 L 166 118 L 165 119 L 162 119 Z M 157 116 L 158 115 L 160 116 L 159 117 Z M 317 115 L 318 114 L 321 116 L 321 118 L 320 119 L 317 116 Z M 314 115 L 315 114 L 316 115 L 315 116 Z M 167 113 L 169 116 L 167 118 L 166 118 L 165 117 L 165 115 Z M 265 113 L 266 112 L 267 113 L 266 114 Z M 231 113 L 232 112 L 233 113 L 232 114 Z M 191 113 L 192 112 L 193 113 L 192 114 Z M 146 113 L 147 112 L 148 113 L 147 114 Z M 225 112 L 226 111 L 227 112 L 226 113 Z M 142 110 L 144 109 L 146 112 L 144 113 L 142 111 Z M 159 109 L 160 108 L 162 108 L 163 109 L 162 110 L 160 110 Z M 263 107 L 264 108 L 261 111 L 261 112 L 262 112 L 264 115 L 262 117 L 260 118 L 257 118 L 256 119 L 255 118 L 255 116 L 254 116 L 253 114 L 254 113 L 258 113 L 259 111 L 258 109 L 259 108 Z M 229 107 L 231 107 L 232 108 L 232 110 L 230 113 L 228 112 L 226 109 Z M 89 107 L 90 108 L 90 110 L 89 111 L 88 110 L 88 108 Z M 85 107 L 86 106 L 87 108 L 86 109 Z M 187 106 L 188 105 L 189 106 L 188 107 Z M 184 104 L 185 102 L 187 103 L 185 105 Z M 186 102 L 187 101 L 188 102 L 187 103 Z M 187 101 L 188 100 L 189 101 L 188 102 Z M 183 101 L 184 100 L 185 102 L 184 103 Z M 94 100 L 95 99 L 96 100 L 95 101 Z M 240 99 L 241 98 L 242 99 L 241 100 Z M 146 99 L 147 98 L 148 99 L 147 100 Z M 74 99 L 75 98 L 76 99 L 75 100 Z M 237 97 L 238 98 L 238 104 L 236 106 L 236 107 L 234 108 L 233 107 L 233 103 L 230 101 L 231 100 L 233 100 L 233 99 L 235 97 Z M 183 98 L 184 97 L 185 98 L 184 99 Z M 179 100 L 179 98 L 180 97 L 184 99 L 180 101 Z M 144 98 L 145 97 L 147 98 L 146 99 Z M 239 97 L 240 96 L 241 97 L 240 98 Z M 237 96 L 238 95 L 239 96 L 238 97 Z M 133 95 L 134 94 L 135 95 L 134 96 Z M 283 94 L 284 93 L 285 94 L 284 95 Z M 135 94 L 136 93 L 137 94 L 136 95 Z M 285 93 L 286 92 L 287 93 L 286 94 Z M 242 91 L 243 92 L 242 94 L 243 96 L 241 97 L 239 94 Z M 238 89 L 239 88 L 240 89 L 239 90 Z M 217 89 L 218 88 L 219 89 L 218 90 Z M 178 86 L 179 85 L 180 86 L 179 87 Z M 294 83 L 295 82 L 296 83 L 295 84 Z M 215 81 L 216 82 L 216 84 L 215 85 L 215 89 L 217 90 L 217 93 L 216 94 L 215 94 L 213 92 L 213 83 Z M 248 80 L 249 79 L 250 80 L 249 81 Z M 295 76 L 296 75 L 297 76 L 296 77 Z M 248 76 L 249 75 L 251 75 L 253 77 L 253 78 L 251 80 L 250 80 Z M 296 74 L 297 73 L 298 74 L 297 75 Z M 297 73 L 298 72 L 299 73 L 298 74 Z M 214 72 L 216 76 L 216 77 L 214 79 L 213 78 L 213 73 Z M 129 70 L 130 69 L 131 71 L 130 72 Z M 293 67 L 295 70 L 295 74 L 294 75 L 293 74 L 293 71 L 292 70 L 292 68 Z M 205 68 L 206 67 L 207 69 L 206 70 Z M 298 67 L 299 66 L 300 67 L 299 68 Z M 291 67 L 292 66 L 293 67 L 292 68 Z M 299 66 L 300 65 L 301 66 L 300 67 Z M 132 64 L 133 65 L 133 69 L 131 70 L 130 69 L 131 68 L 131 65 Z M 132 64 L 133 63 L 134 64 L 133 65 Z M 135 63 L 136 62 L 138 62 L 139 63 L 138 64 L 136 64 Z M 118 63 L 119 62 L 121 62 L 122 63 L 121 64 L 119 64 Z M 303 61 L 304 60 L 305 61 L 304 62 Z M 287 61 L 288 60 L 289 61 L 288 62 Z M 300 60 L 301 59 L 303 60 L 302 61 Z M 290 60 L 291 59 L 292 60 L 291 61 Z M 177 60 L 178 59 L 179 60 L 178 61 Z M 298 59 L 299 58 L 300 59 L 299 60 Z M 292 58 L 293 57 L 294 58 L 293 59 Z M 132 58 L 133 57 L 134 58 L 133 59 Z M 157 57 L 158 56 L 160 56 L 161 57 L 160 58 L 158 58 Z M 251 56 L 252 55 L 253 56 L 252 57 Z M 213 53 L 214 54 L 214 57 L 213 58 L 212 57 L 212 54 Z M 294 51 L 295 52 L 295 55 L 294 56 L 293 55 L 293 52 Z M 206 48 L 208 50 L 208 51 L 206 53 L 205 52 L 205 49 Z M 207 46 L 208 45 L 209 46 L 208 47 Z M 204 46 L 205 45 L 206 46 L 205 47 Z M 253 32 L 253 33 L 255 34 L 255 32 Z M 94 31 L 94 32 L 96 32 L 96 31 Z M 225 31 L 225 32 L 221 35 L 221 36 L 224 36 L 225 37 L 224 38 L 221 38 L 221 40 L 220 41 L 221 43 L 221 46 L 223 46 L 226 49 L 225 51 L 227 51 L 228 52 L 228 54 L 234 55 L 236 52 L 238 54 L 238 55 L 241 55 L 240 53 L 241 50 L 239 48 L 239 46 L 240 45 L 241 47 L 242 47 L 245 43 L 245 38 L 243 38 L 242 37 L 242 35 L 240 34 L 241 33 L 243 33 L 243 29 L 241 29 L 241 33 L 240 34 L 238 32 L 238 29 L 236 30 L 234 28 L 232 28 L 232 32 L 231 33 L 227 33 L 226 31 Z M 235 50 L 236 49 L 237 50 L 236 51 Z M 105 26 L 105 28 L 106 28 L 106 26 Z M 281 13 L 281 14 L 284 14 L 284 13 Z M 244 5 L 244 6 L 245 6 L 245 5 Z M 20 123 L 20 126 L 21 127 L 21 129 L 20 130 L 20 136 L 18 140 L 16 139 L 14 140 L 13 144 L 15 146 L 15 149 L 14 150 L 14 152 L 12 153 L 11 157 L 9 159 L 9 161 L 10 162 L 9 163 L 9 167 L 10 168 L 9 170 L 9 182 L 7 184 L 6 184 L 4 187 L 5 189 L 5 192 L 7 192 L 8 193 L 8 197 L 7 198 L 6 197 L 6 194 L 2 195 L 2 213 L 5 212 L 6 214 L 8 215 L 8 218 L 7 219 L 5 219 L 5 224 L 8 224 L 9 225 L 9 234 L 10 235 L 9 240 L 11 241 L 11 243 L 10 244 L 10 246 L 11 247 L 10 248 L 10 250 L 12 254 L 11 255 L 12 257 L 12 261 L 13 261 L 15 263 L 15 265 L 17 266 L 15 267 L 16 270 L 17 270 L 18 272 L 19 272 L 20 271 L 19 269 L 19 266 L 21 264 L 21 262 L 17 260 L 17 259 L 19 258 L 19 256 L 18 255 L 18 249 L 17 248 L 18 246 L 16 244 L 15 236 L 14 235 L 16 233 L 17 233 L 17 230 L 15 230 L 13 227 L 14 225 L 13 223 L 13 215 L 14 214 L 14 209 L 15 208 L 15 203 L 14 202 L 14 193 L 16 191 L 15 186 L 16 184 L 18 183 L 18 178 L 19 177 L 19 175 L 18 174 L 20 171 L 19 169 L 21 168 L 22 166 L 24 166 L 24 163 L 23 162 L 25 159 L 25 155 L 24 154 L 24 152 L 26 149 L 29 148 L 30 140 L 35 133 L 35 131 L 34 130 L 36 128 L 37 125 L 39 123 L 40 123 L 40 118 L 44 116 L 45 118 L 46 118 L 45 109 L 46 108 L 48 108 L 49 110 L 51 110 L 50 104 L 52 102 L 56 101 L 55 99 L 58 95 L 58 93 L 60 91 L 62 91 L 62 86 L 63 85 L 64 86 L 68 85 L 67 83 L 69 81 L 71 81 L 72 80 L 72 76 L 73 75 L 77 75 L 78 74 L 78 72 L 79 71 L 82 71 L 83 70 L 83 68 L 87 64 L 88 65 L 90 64 L 93 65 L 94 60 L 95 59 L 98 59 L 99 58 L 99 56 L 101 54 L 104 54 L 107 52 L 109 53 L 109 50 L 110 49 L 114 48 L 114 47 L 116 45 L 120 43 L 125 43 L 131 38 L 135 39 L 136 37 L 136 34 L 137 33 L 143 33 L 145 32 L 146 33 L 154 33 L 156 34 L 156 32 L 153 32 L 152 30 L 154 28 L 157 28 L 159 26 L 160 27 L 162 27 L 162 26 L 164 25 L 165 27 L 174 27 L 174 25 L 175 24 L 178 24 L 178 23 L 180 21 L 181 22 L 183 21 L 190 21 L 191 20 L 194 20 L 195 21 L 201 21 L 202 19 L 205 19 L 206 21 L 207 21 L 208 19 L 215 19 L 216 20 L 220 20 L 221 22 L 224 22 L 225 20 L 227 20 L 228 21 L 232 21 L 233 22 L 232 24 L 236 24 L 239 22 L 242 22 L 243 23 L 246 23 L 247 25 L 248 25 L 250 27 L 262 27 L 265 31 L 267 30 L 268 32 L 275 32 L 276 33 L 278 33 L 280 35 L 280 37 L 282 36 L 283 38 L 290 38 L 292 40 L 292 42 L 294 43 L 300 43 L 301 44 L 304 44 L 307 46 L 306 48 L 308 48 L 312 50 L 312 54 L 314 53 L 317 53 L 320 56 L 318 57 L 318 59 L 325 59 L 328 61 L 328 64 L 331 65 L 333 67 L 334 70 L 340 70 L 341 71 L 341 72 L 339 73 L 339 75 L 341 75 L 342 74 L 345 76 L 346 78 L 345 79 L 345 83 L 344 84 L 342 83 L 342 88 L 340 89 L 339 91 L 337 90 L 337 94 L 338 96 L 336 98 L 335 96 L 331 92 L 333 89 L 333 87 L 328 87 L 327 86 L 323 86 L 322 87 L 320 87 L 320 89 L 319 90 L 320 92 L 318 94 L 317 94 L 317 97 L 319 96 L 324 96 L 325 97 L 323 99 L 323 102 L 325 103 L 323 104 L 322 108 L 323 108 L 324 109 L 324 111 L 325 111 L 327 113 L 327 115 L 330 115 L 330 113 L 331 112 L 335 112 L 337 114 L 335 115 L 333 117 L 333 118 L 337 117 L 339 119 L 339 122 L 338 124 L 341 123 L 343 125 L 341 127 L 339 126 L 339 128 L 341 128 L 344 130 L 348 129 L 348 121 L 350 119 L 350 116 L 352 115 L 353 116 L 352 118 L 353 118 L 355 114 L 356 115 L 356 117 L 360 115 L 364 115 L 363 113 L 365 112 L 365 110 L 368 107 L 370 107 L 371 108 L 371 111 L 372 111 L 376 115 L 376 118 L 377 119 L 376 121 L 377 121 L 381 125 L 381 129 L 382 131 L 384 132 L 383 134 L 385 133 L 387 135 L 386 139 L 389 141 L 387 142 L 387 143 L 391 145 L 391 148 L 392 149 L 392 154 L 393 155 L 392 158 L 393 158 L 394 160 L 398 162 L 397 163 L 397 166 L 398 167 L 398 173 L 399 174 L 397 175 L 397 176 L 399 177 L 398 181 L 402 183 L 402 190 L 404 193 L 403 195 L 403 198 L 404 199 L 403 205 L 405 206 L 405 208 L 404 209 L 403 207 L 402 207 L 402 209 L 405 211 L 405 224 L 403 225 L 404 227 L 404 230 L 405 231 L 403 232 L 403 244 L 402 245 L 402 255 L 400 257 L 398 257 L 398 264 L 400 266 L 398 270 L 399 272 L 400 272 L 400 270 L 402 269 L 402 266 L 405 263 L 408 257 L 407 255 L 407 251 L 406 250 L 407 247 L 409 245 L 408 241 L 410 240 L 411 241 L 411 244 L 412 244 L 412 241 L 411 239 L 409 238 L 410 236 L 412 237 L 412 235 L 411 234 L 411 231 L 412 229 L 410 228 L 410 225 L 412 224 L 411 222 L 411 210 L 412 209 L 412 204 L 411 203 L 411 193 L 412 191 L 410 188 L 410 183 L 412 182 L 412 179 L 411 178 L 412 177 L 412 172 L 411 172 L 411 174 L 410 175 L 408 171 L 409 169 L 409 166 L 407 162 L 407 154 L 408 153 L 408 151 L 406 151 L 405 150 L 405 148 L 401 142 L 402 141 L 400 137 L 401 136 L 401 134 L 400 134 L 396 129 L 397 121 L 396 119 L 393 119 L 390 117 L 391 114 L 389 111 L 391 110 L 391 106 L 389 107 L 388 106 L 389 103 L 387 103 L 385 101 L 385 99 L 381 97 L 381 95 L 380 94 L 381 92 L 377 92 L 375 89 L 376 87 L 375 86 L 371 85 L 370 84 L 370 81 L 369 81 L 365 76 L 365 73 L 364 72 L 366 69 L 368 70 L 369 69 L 369 67 L 366 67 L 366 69 L 363 71 L 362 70 L 360 71 L 357 69 L 358 68 L 358 65 L 356 66 L 354 64 L 355 61 L 354 60 L 350 60 L 349 59 L 349 54 L 347 54 L 347 55 L 344 57 L 343 55 L 342 55 L 339 52 L 340 50 L 338 48 L 335 48 L 334 47 L 335 46 L 337 46 L 337 45 L 335 45 L 334 44 L 330 44 L 327 40 L 327 37 L 323 38 L 320 34 L 317 34 L 315 33 L 311 28 L 306 28 L 301 25 L 301 23 L 294 23 L 290 19 L 290 17 L 288 18 L 287 17 L 281 18 L 279 16 L 279 15 L 275 15 L 273 12 L 268 12 L 266 10 L 264 10 L 262 8 L 261 8 L 261 9 L 259 10 L 258 9 L 258 7 L 256 7 L 255 6 L 249 7 L 248 9 L 244 9 L 243 8 L 240 8 L 239 7 L 234 7 L 233 5 L 228 5 L 227 6 L 217 6 L 216 5 L 204 5 L 203 6 L 193 6 L 192 5 L 189 5 L 188 7 L 187 6 L 185 7 L 184 6 L 182 7 L 181 6 L 179 6 L 178 8 L 177 8 L 176 6 L 175 6 L 173 9 L 171 7 L 163 7 L 163 9 L 162 10 L 160 10 L 156 12 L 150 12 L 149 14 L 148 12 L 146 13 L 142 13 L 140 17 L 138 17 L 137 15 L 133 16 L 132 17 L 126 17 L 127 19 L 124 24 L 122 22 L 121 22 L 116 26 L 112 26 L 112 27 L 111 28 L 109 28 L 105 33 L 100 33 L 99 36 L 97 38 L 96 38 L 93 35 L 91 35 L 89 38 L 89 42 L 87 44 L 85 44 L 85 45 L 83 46 L 80 50 L 78 50 L 77 54 L 75 56 L 73 55 L 69 58 L 68 58 L 67 61 L 65 63 L 63 62 L 62 66 L 61 67 L 59 67 L 59 69 L 57 70 L 57 74 L 55 76 L 52 76 L 52 78 L 50 81 L 46 81 L 46 85 L 44 88 L 42 85 L 42 83 L 41 83 L 40 84 L 42 88 L 41 96 L 40 97 L 34 97 L 33 98 L 33 101 L 35 102 L 33 105 L 31 103 L 31 102 L 30 102 L 31 106 L 32 107 L 27 113 L 25 113 L 25 116 L 24 118 L 26 122 L 23 124 L 22 123 Z M 399 263 L 400 262 L 401 263 L 400 264 Z M 6 221 L 7 220 L 8 221 L 7 222 Z M 6 211 L 7 210 L 8 212 L 7 213 Z M 4 209 L 5 208 L 6 209 L 5 210 Z M 6 199 L 7 200 L 7 208 L 6 209 L 5 208 L 5 200 Z M 6 190 L 7 189 L 8 190 L 7 191 Z M 7 185 L 8 184 L 9 185 L 8 186 Z M 355 114 L 356 113 L 357 114 L 356 115 Z M 356 113 L 357 112 L 359 113 L 358 114 Z M 329 112 L 330 111 L 331 112 L 330 113 Z M 388 109 L 389 108 L 390 109 L 389 110 Z M 367 102 L 368 101 L 369 102 L 368 103 Z M 333 100 L 334 99 L 335 101 L 334 102 Z M 354 98 L 355 97 L 360 97 L 361 96 L 363 97 L 366 101 L 365 102 L 363 102 L 362 104 L 360 102 L 360 99 L 359 99 L 359 101 L 358 102 L 356 100 L 355 100 Z M 327 98 L 328 96 L 330 97 L 328 99 Z M 353 86 L 354 87 L 355 91 L 359 92 L 360 93 L 356 96 L 353 96 L 353 98 L 352 99 L 349 96 L 349 93 L 350 92 L 353 92 L 353 91 L 351 91 L 350 90 L 350 88 L 352 86 Z M 348 80 L 349 81 L 349 84 L 348 85 L 347 84 L 347 81 Z M 91 62 L 92 61 L 93 62 L 92 63 Z M 346 59 L 347 58 L 348 59 L 347 60 Z M 319 57 L 320 56 L 321 57 L 320 58 Z M 333 46 L 334 45 L 335 46 L 334 47 Z M 324 40 L 325 39 L 326 40 L 325 41 Z M 111 28 L 112 27 L 113 28 L 112 29 Z M 134 18 L 135 17 L 136 18 L 135 19 Z M 254 10 L 255 9 L 256 10 L 255 11 Z M 215 2 L 215 3 L 216 3 L 216 2 Z M 201 0 L 201 1 L 203 1 L 204 2 L 209 1 L 209 0 Z " /></g></svg>